<svg id="Arte" xmlns="http://www.w3.org/2000/svg" viewBox="0 0 1300 700"><defs><style>.cls-1,.cls-3{fill:#349eff;}.cls-2,.cls-3{opacity:0.6;}</style></defs><g id="Completo_-_1" data-name="Completo - 1"><path class="cls-1" d="M404.47,277.85a58.67,58.67,0,0,1-3.26,20.09,42.32,42.32,0,0,1-9.43,15.33,41.34,41.34,0,0,1-15.16,9.78,56.74,56.74,0,0,1-20.44,3.44c-3.18,0-6.5-.14-10-.44s-6.87-.68-10.22-1.14-6.55-1-9.61-1.67-5.76-1.33-8.11-2V191.66l26.26-4.23v46.18a49.94,49.94,0,0,1,9.17-3,47.37,47.37,0,0,1,10.22-1.05A41.87,41.87,0,0,1,381.38,233a34.22,34.22,0,0,1,12.69,9.79A44,44,0,0,1,401.83,258,69.62,69.62,0,0,1,404.47,277.85Zm-26.79-.71q0-25.38-18.68-25.38a31.16,31.16,0,0,0-8,1.06,22.93,22.93,0,0,0-6.44,2.64v47.77c1.3.23,2.94.44,4.94.61s4.17.27,6.52.27q10.75,0,16.22-7.4T377.68,277.14Z"/><path class="cls-1" d="M451.35,305.34c4.82,0,8.22-.46,10.22-1.41s3-2.76,3-5.46q0-3.18-3.88-5.55a73.23,73.23,0,0,0-11.81-5.38,118.06,118.06,0,0,1-11.19-4.76,32.79,32.79,0,0,1-8.55-5.9,23.87,23.87,0,0,1-5.46-8.2,30.17,30.17,0,0,1-1.94-11.45q0-13.05,9.7-20.63T458.05,229a86,86,0,0,1,16.21,1.49,75.13,75.13,0,0,1,12.34,3.27L482,254.23a95.84,95.84,0,0,0-10-2.82A54.32,54.32,0,0,0,460,250.18q-12.35,0-12.34,6.87a7.13,7.13,0,0,0,.53,2.82,6,6,0,0,0,2.11,2.38,29.85,29.85,0,0,0,4.32,2.48q2.73,1.33,7,2.93A107.12,107.12,0,0,1,475.85,274a34.15,34.15,0,0,1,8.9,6.71,20.85,20.85,0,0,1,4.58,8,35.47,35.47,0,0,1,1.33,10.19q0,13.72-10.31,20.76t-29.17,7A82.62,82.62,0,0,1,419.27,321l4.41-21.33a84.38,84.38,0,0,0,13.75,4.14A66.68,66.68,0,0,0,451.35,305.34Z"/><path class="cls-1" d="M505.81,278.56A56.66,56.66,0,0,1,509.6,257a46.27,46.27,0,0,1,9.95-15.42,41.52,41.52,0,0,1,14.19-9.34A44.54,44.54,0,0,1,550.22,229q19.74,0,31.2,12.07t11.46,35.52c0,1.52-.06,3.2-.18,5s-.24,3.43-.35,4.85H532.77a17.47,17.47,0,0,0,7.58,12.86q6.71,4.75,18,4.76a76,76,0,0,0,14.19-1.32,53.72,53.72,0,0,0,11.37-3.26l3.52,21.32a36.21,36.21,0,0,1-5.64,2.12,72.76,72.76,0,0,1-7.84,1.85q-4.32.8-9.26,1.32a93.06,93.06,0,0,1-9.86.53q-12.52,0-21.77-3.7a42.36,42.36,0,0,1-15.34-10.14,40.29,40.29,0,0,1-9-15.24A60.37,60.37,0,0,1,505.81,278.56Zm61.68-10.05a26.92,26.92,0,0,0-1.14-6.52,16.28,16.28,0,0,0-3-5.64,15.88,15.88,0,0,0-5.11-4.06,16.6,16.6,0,0,0-7.67-1.58,17.42,17.42,0,0,0-7.57,1.5,15.56,15.56,0,0,0-5.29,4,17.67,17.67,0,0,0-3.26,5.73,37.47,37.47,0,0,0-1.68,6.61Z"/><path class="cls-1" d="M669,254.76c-2.35-.59-5.11-1.2-8.29-1.85a50.89,50.89,0,0,0-10.22-1,48,48,0,0,0-5.9.44,35.82,35.82,0,0,0-5.2,1V324.2H613.15V236.43a158.71,158.71,0,0,1,16.65-4.67,95.89,95.89,0,0,1,21.42-2.2c1.41,0,3.11.09,5.11.26s4,.41,6,.7,4,.65,6,1.06a27.81,27.81,0,0,1,5.11,1.5Z"/><path class="cls-1" d="M718.32,324.2Q709.3,306.58,700,283t-17.6-51.46h27.85q1.77,6.87,4.16,14.88t5,16.22q2.57,8.2,5.13,16t5,14.09q2.3-6.34,5-14.09t5.22-16q2.57-8.19,4.95-16.22t4.16-14.88H776q-8.31,27.84-17.59,51.46T740.12,324.2Z"/><path class="cls-1" d="M821.47,229q11.64,0,19.39,2.64a30,30,0,0,1,12.42,7.58,27.8,27.8,0,0,1,6.61,12,58.88,58.88,0,0,1,1.94,15.69v54.64q-5.64,1.23-15.68,2.91a151.6,151.6,0,0,1-24.33,1.67,76.88,76.88,0,0,1-16.3-1.59,35.15,35.15,0,0,1-12.6-5.2,23.68,23.68,0,0,1-8.11-9.43A32.49,32.49,0,0,1,782,295.65a27.11,27.11,0,0,1,3.26-13.75,25,25,0,0,1,8.72-9,39.15,39.15,0,0,1,12.52-4.85,70.15,70.15,0,0,1,14.63-1.5,83.8,83.8,0,0,1,9.07.44,41.29,41.29,0,0,1,6.44,1.14v-2.46q0-6.7-4-10.75t-14.1-4.06a89.4,89.4,0,0,0-13.23,1A57.59,57.59,0,0,0,794,254.58l-3.34-21.15c1.52-.46,3.43-1,5.72-1.49s4.79-1,7.5-1.42,5.55-.76,8.54-1.06S818.41,229,821.47,229Zm2.12,76.84c2.58,0,5-.05,7.4-.17a53.4,53.4,0,0,0,5.64-.53V285.25c-1.06-.23-2.65-.47-4.76-.7a51.64,51.64,0,0,0-5.82-.35,52.75,52.75,0,0,0-7,.43,18.5,18.5,0,0,0-5.73,1.68,9.82,9.82,0,0,0-3.87,3.35,9.24,9.24,0,0,0-1.42,5.28q0,6.18,4.15,8.55T823.59,305.87Z"/><path class="cls-1" d="M884.74,208.4,911,204.18V231.5h31.55v21.85H911V286q0,8.28,2.9,13.22t11.73,4.93a51,51,0,0,0,8.72-.79,45.09,45.09,0,0,0,8.2-2.2l3.7,20.44a75.32,75.32,0,0,1-10.58,3.35,61.67,61.67,0,0,1-14.28,1.41q-10.74,0-17.8-2.91a27.91,27.91,0,0,1-11.28-8.11,30.21,30.21,0,0,1-5.9-12.6,74.13,74.13,0,0,1-1.68-16.39Z"/><path class="cls-1" d="M1047.07,277.67a60.46,60.46,0,0,1-3.17,20,43.49,43.49,0,0,1-9.17,15.51,41,41,0,0,1-14.36,9.95,51.22,51.22,0,0,1-37.37,0,41,41,0,0,1-14.36-9.95,45.5,45.5,0,0,1-9.34-15.51,57.28,57.28,0,0,1-3.35-20,55.15,55.15,0,0,1,3.44-19.91,45.14,45.14,0,0,1,9.51-15.34,42.75,42.75,0,0,1,14.46-9.87A46.48,46.48,0,0,1,1001.6,229a47,47,0,0,1,18.42,3.52,42,42,0,0,1,14.36,9.87,44.79,44.79,0,0,1,9.34,15.34A56.7,56.7,0,0,1,1047.07,277.67Zm-23.79-79.49-29,24.5-12.07-10.75,24.94-28.55Zm-3,79.49q0-12.15-4.85-19.12t-13.83-7q-9,0-13.93,7t-4.93,19.12q0,12.16,4.93,19.3a16,16,0,0,0,13.93,7.14q9,0,13.83-7.14T1020.28,277.67Z"/><path class="cls-1" d="M1123.21,254.76c-2.35-.59-5.11-1.2-8.29-1.85a50.89,50.89,0,0,0-10.22-1,48.14,48.14,0,0,0-5.9.44,35.82,35.82,0,0,0-5.2,1V324.2h-26.26V236.43a159.41,159.41,0,0,1,16.65-4.67,96,96,0,0,1,21.42-2.2c1.41,0,3.11.09,5.11.26s4,.41,6,.7,4,.65,6,1.06a28.18,28.18,0,0,1,5.12,1.5Z"/><path class="cls-1" d="M1170.44,204.7q0,7.23-4.67,11.37a16.69,16.69,0,0,1-22,0q-4.66-4.14-4.67-11.37t4.67-11.37a16.72,16.72,0,0,1,22,0Q1170.45,197.49,1170.44,204.7ZM1168,324.2h-26.26V231.5H1168Z"/><path class="cls-1" d="M1279.36,277.67a60.21,60.21,0,0,1-3.17,20,43.47,43.47,0,0,1-9.16,15.51,41.16,41.16,0,0,1-14.37,9.95,47.94,47.94,0,0,1-18.77,3.53,47.42,47.42,0,0,1-18.59-3.53,41.07,41.07,0,0,1-14.37-9.95,45.66,45.66,0,0,1-9.34-15.51,57.51,57.51,0,0,1-3.35-20,55.36,55.36,0,0,1,3.44-19.91,45,45,0,0,1,9.52-15.34,42.71,42.71,0,0,1,14.45-9.87,46.52,46.52,0,0,1,18.24-3.52,47,47,0,0,1,18.42,3.52,41.77,41.77,0,0,1,14.36,9.87,44.81,44.81,0,0,1,9.35,15.34A56.93,56.93,0,0,1,1279.36,277.67Zm-26.79,0q0-12.15-4.84-19.12t-13.84-7q-9,0-13.92,7T1215,277.67q0,12.16,4.94,19.3a15.94,15.94,0,0,0,13.92,7.14,15.75,15.75,0,0,0,13.84-7.14Q1252.58,289.83,1252.57,277.67Z"/><path class="cls-1" d="M404.47,446a58.71,58.71,0,0,1-3.26,20.09,42.41,42.41,0,0,1-9.43,15.33,41.34,41.34,0,0,1-15.16,9.78,56.74,56.74,0,0,1-20.44,3.44q-4.77,0-10-.44c-3.47-.3-6.87-.68-10.22-1.14s-6.55-1-9.61-1.68-5.76-1.32-8.11-2V359.84l26.26-4.23v46.18a49.19,49.19,0,0,1,9.17-3,46.73,46.73,0,0,1,10.22-1.06,41.87,41.87,0,0,1,17.45,3.44A34.19,34.19,0,0,1,394.07,411a44,44,0,0,1,7.76,15.25A69.57,69.57,0,0,1,404.47,446Zm-26.79-.71q0-25.38-18.68-25.38a30.73,30.73,0,0,0-8,1.06,22.64,22.64,0,0,0-6.44,2.64V471.4c1.3.24,2.94.44,4.94.62s4.17.27,6.52.27q10.75,0,16.22-7.4T377.68,445.32Z"/><path class="cls-1" d="M451.35,473.52c4.82,0,8.22-.47,10.22-1.41s3-2.76,3-5.46q0-3.18-3.88-5.55a73.23,73.23,0,0,0-11.81-5.38q-6.17-2.3-11.19-4.76a32.79,32.79,0,0,1-8.55-5.9,24,24,0,0,1-5.46-8.2,30.17,30.17,0,0,1-1.94-11.45q0-13.05,9.7-20.63t26.61-7.57a85.2,85.2,0,0,1,16.21,1.49A76.28,76.28,0,0,1,486.6,402L482,422.41a98.32,98.32,0,0,0-10-2.83A54.32,54.32,0,0,0,460,418.35q-12.35,0-12.34,6.87a7.18,7.18,0,0,0,.53,2.83,6,6,0,0,0,2.11,2.38,30.82,30.82,0,0,0,4.32,2.48c1.82.89,4.14,1.86,7,2.93a107.21,107.21,0,0,1,14.28,6.3,34.39,34.39,0,0,1,8.9,6.72,20.74,20.74,0,0,1,4.58,8,35.54,35.54,0,0,1,1.33,10.2q0,13.72-10.31,20.75t-29.17,7a82.62,82.62,0,0,1-31.91-5.64l4.41-21.33A86.4,86.4,0,0,0,437.43,472,66.68,66.68,0,0,0,451.35,473.52Z"/><path class="cls-1" d="M509.33,376.58l26.26-4.23v27.32h31.55v21.86H535.59v32.6q0,8.3,2.91,13.22t11.72,4.94a50.17,50.17,0,0,0,8.73-.8,44.18,44.18,0,0,0,8.19-2.2l3.7,20.45a74.76,74.76,0,0,1-10.57,3.35,61.72,61.72,0,0,1-14.28,1.4q-10.75,0-17.8-2.9a27.91,27.91,0,0,1-11.28-8.11,30.14,30.14,0,0,1-5.9-12.6,74.22,74.22,0,0,1-1.68-16.4Z"/><path class="cls-1" d="M580.54,446.73a56.64,56.64,0,0,1,3.79-21.59,46.19,46.19,0,0,1,10-15.42,41.51,41.51,0,0,1,14.19-9.35A44.49,44.49,0,0,1,625,397.21q19.72,0,31.19,12.07t11.46,35.51c0,1.53-.06,3.2-.18,5s-.24,3.43-.35,4.84H607.51a17.45,17.45,0,0,0,7.57,12.87q6.7,4.75,18,4.76A76.84,76.84,0,0,0,647.25,471a53.67,53.67,0,0,0,11.37-3.27L662.14,489a36.21,36.21,0,0,1-5.64,2.12,75.22,75.22,0,0,1-7.84,1.85c-2.88.53-6,1-9.25,1.32a93.24,93.24,0,0,1-9.87.53,58.57,58.57,0,0,1-21.77-3.7A42.36,42.36,0,0,1,592.44,481a40.15,40.15,0,0,1-9-15.25A60.32,60.32,0,0,1,580.54,446.73Zm65.56-80.37-29,24.5L605,380.1,630,351.55Zm-3.87,70.33a27.1,27.1,0,0,0-1.15-6.53,16.44,16.44,0,0,0-3-5.64,16.14,16.14,0,0,0-5.12-4,16.58,16.58,0,0,0-7.66-1.59,17.58,17.58,0,0,0-7.58,1.5,15.58,15.58,0,0,0-5.29,4,17.62,17.62,0,0,0-3.26,5.72,36.9,36.9,0,0,0-1.67,6.62Z"/><path class="cls-1" d="M687,376.58l26.27-4.23v27.32H744.8v21.86H713.26v32.6q0,8.3,2.9,13.22t11.72,4.94a50.17,50.17,0,0,0,8.73-.8,44,44,0,0,0,8.19-2.2l3.7,20.45a74.76,74.76,0,0,1-10.57,3.35,61.72,61.72,0,0,1-14.28,1.4q-10.74,0-17.8-2.9a27.91,27.91,0,0,1-11.28-8.11,30.14,30.14,0,0,1-5.9-12.6,74.22,74.22,0,0,1-1.68-16.4Z"/><path class="cls-1" d="M822,422.93q-3.53-.87-8.29-1.85a51.65,51.65,0,0,0-10.22-1,46.23,46.23,0,0,0-5.9.44,33.26,33.26,0,0,0-5.2,1v70.85H766.13V404.61a154.64,154.64,0,0,1,16.65-4.67,96,96,0,0,1,21.42-2.21c1.41,0,3.11.09,5.11.27s4,.41,6,.7,4,.65,6,1.06a28.05,28.05,0,0,1,5.11,1.5Z"/><path class="cls-1" d="M869.24,372.88q0,7.23-4.67,11.37a16.74,16.74,0,0,1-22,0q-4.66-4.14-4.67-11.37t4.67-11.37a16.74,16.74,0,0,1,22,0Q869.23,365.67,869.24,372.88Zm-2.47,119.5H840.51V399.67h26.26Z"/><path class="cls-1" d="M887,446a54.73,54.73,0,0,1,3.26-18.95,44.37,44.37,0,0,1,24.41-26,49.57,49.57,0,0,1,20.1-3.87,65,65,0,0,1,13.57,1.31,67.24,67.24,0,0,1,12,3.79l-5.46,21a67.11,67.11,0,0,0-8.11-2.47,42.69,42.69,0,0,0-9.87-1.05q-11.62,0-17.36,7.22t-5.73,19q0,12.51,5.38,19.38T938,472.29a63,63,0,0,0,10.22-.89,43.34,43.34,0,0,0,10-2.81l3.7,21.5a62.56,62.56,0,0,1-11.46,3.35,75.49,75.49,0,0,1-15.15,1.41q-12.69,0-21.86-3.79a41.34,41.34,0,0,1-15.07-10.31,40.21,40.21,0,0,1-8.64-15.42A65.57,65.57,0,0,1,887,446Z"/><path class="cls-1" d="M1061.88,445.85a60.1,60.1,0,0,1-3.18,20,43.3,43.3,0,0,1-9.16,15.51,41.31,41.31,0,0,1-14.37,10,47.94,47.94,0,0,1-18.77,3.53,47.45,47.45,0,0,1-18.59-3.53,41.31,41.31,0,0,1-14.37-10,45.47,45.47,0,0,1-9.34-15.51,57.41,57.41,0,0,1-3.35-20,55.38,55.38,0,0,1,3.44-19.92,45.06,45.06,0,0,1,9.52-15.33,42.71,42.71,0,0,1,14.45-9.87,46.52,46.52,0,0,1,18.24-3.52,47,47,0,0,1,18.42,3.52,41.77,41.77,0,0,1,14.36,9.87,44.86,44.86,0,0,1,9.35,15.33A56.71,56.71,0,0,1,1061.88,445.85Zm-26.8,0q0-12.17-4.84-19.13t-13.84-7q-9,0-13.92,7t-4.94,19.13q0,12.16,4.94,19.3a15.94,15.94,0,0,0,13.92,7.14q9,0,13.84-7.14T1035.08,445.85Z"/><g class="cls-2"><path class="cls-1" d="M1130.83,496q-9.18,0-18.26-.56a130,130,0,0,1-18.9-2.65V384.67a160.69,160.69,0,0,1,16.89-2.17q9.17-.72,17-.72a117,117,0,0,1,19.54,1.52,46.68,46.68,0,0,1,15.37,5.23,27.41,27.41,0,0,1,10,9.74q3.63,6,3.62,14.88,0,13.35-12.87,21.07,10.62,4,14.48,10.94a31.41,31.41,0,0,1,3.86,15.6q0,17.53-12.79,26.39T1130.83,496Zm-12.71-69.17h12.22q11.58,0,16.57-3t5-9.58q0-6.75-5.15-9.49t-15.12-2.73c-2.15,0-4.45,0-6.92.08s-4.66.19-6.59.4Zm0,19.15v28.79q2.73.33,6,.48t7.08.16q11.25,0,18.18-3.21t6.91-11.91q0-7.71-5.79-11T1133.88,446Z"/><path class="cls-1" d="M1251.16,431.16q-3.23-.8-7.56-1.69a47.53,47.53,0,0,0-9.33-.88,44.74,44.74,0,0,0-5.39.4,32.11,32.11,0,0,0-4.75.89v64.67h-24V414.43a147,147,0,0,1,15.2-4.26,87.68,87.68,0,0,1,19.55-2c1.29,0,2.84.08,4.66.24s3.65.38,5.47.64,3.65.6,5.47,1a25.76,25.76,0,0,1,4.67,1.37Z"/><path class="cls-1" d="M224.6,278.76a13.58,13.58,0,0,0,5,4,18,18,0,0,0,13.93,0,13.62,13.62,0,0,0,5-3.93,19.4,19.4,0,0,0,3.31-6.53,30.92,30.92,0,0,0,1.22-9.05,31.7,31.7,0,0,0-1.22-9.12,19.4,19.4,0,0,0-3.31-6.55h0a13.65,13.65,0,0,0-5-3.94,16.53,16.53,0,0,0-7-1.41,15.83,15.83,0,0,0-6.95,1.44,14.42,14.42,0,0,0-5,4,19.35,19.35,0,0,0-3.3,6.56,34.16,34.16,0,0,0,0,18.06A19.38,19.38,0,0,0,224.6,278.76Z"/><path class="cls-1" d="M187.18,309.66A59.29,59.29,0,0,0,208,323.57c8.22,3.36,17.79,5.07,28.44,5.07a75.88,75.88,0,0,0,28.23-5A60.27,60.27,0,0,0,285.65,310a58.6,58.6,0,0,0,13-20.76,74.58,74.58,0,0,0,4.44-26,75.92,75.92,0,0,0-4.34-26A59.24,59.24,0,0,0,286,216.43a58.4,58.4,0,0,0-21-13.82c-8.28-3.29-17.88-5-28.52-5s-20.2,1.7-28.44,5.06a59,59,0,0,0-20.86,14,60.38,60.38,0,0,0-12.76,20.85,78.2,78.2,0,0,0,0,51.32A59.33,59.33,0,0,0,187.18,309.66Zm7.37-46.46a48.88,48.88,0,0,1,3.39-18.78,40.79,40.79,0,0,1,9.24-13.85,38.09,38.09,0,0,1,13.51-8.48,46.64,46.64,0,0,1,16-2.76,47.17,47.17,0,0,1,16,2.75,37.65,37.65,0,0,1,13.54,8.5,40,40,0,0,1,9.07,13.88,55.92,55.92,0,0,1,.06,37.46h0a39.65,39.65,0,0,1-8.89,13.83A37.08,37.08,0,0,1,253,304.22,48.14,48.14,0,0,1,236.57,307a46.86,46.86,0,0,1-16.15-2.78,37.85,37.85,0,0,1-13.52-8.43A39.43,39.43,0,0,1,197.81,282,50.56,50.56,0,0,1,194.55,263.2Z"/><path class="cls-1" d="M248.54,415.51a13.54,13.54,0,0,0-5-3.94,16.34,16.34,0,0,0-7-1.41,16,16,0,0,0-6.95,1.43,14.42,14.42,0,0,0-5,4,19.4,19.4,0,0,0-3.3,6.57,34.13,34.13,0,0,0,0,18.05,19.43,19.43,0,0,0,3.31,6.52,13.63,13.63,0,0,0,5,3.95,17.91,17.91,0,0,0,13.93,0,13.67,13.67,0,0,0,5-3.94,19.44,19.44,0,0,0,3.31-6.52,31,31,0,0,0,1.22-9.05,31.77,31.77,0,0,0-1.22-9.13A19.5,19.5,0,0,0,248.54,415.51Z"/><path class="cls-1" d="M286,384.41a58.13,58.13,0,0,0-21-13.81,77.18,77.18,0,0,0-28.52-5c-10.63,0-20.2,1.7-28.44,5.06a59.13,59.13,0,0,0-20.86,14,60.47,60.47,0,0,0-12.76,20.85,78.2,78.2,0,0,0,0,51.32A57.8,57.8,0,0,0,208,491.56c8.22,3.36,17.79,5.06,28.44,5.06a75.64,75.64,0,0,0,28.23-5A60.3,60.3,0,0,0,285.65,478a58.64,58.64,0,0,0,13-20.77,74.58,74.58,0,0,0,4.44-26,76,76,0,0,0-4.34-26A59.11,59.11,0,0,0,286,384.41Zm-7.37,46.78a51.08,51.08,0,0,1-3.2,18.72h0a39.56,39.56,0,0,1-8.89,13.83A37,37,0,0,1,253,472.2,48,48,0,0,1,236.57,475a47.09,47.09,0,0,1-16.15-2.78,38,38,0,0,1-13.52-8.43,39.47,39.47,0,0,1-9.09-13.84,50.51,50.51,0,0,1-3.26-18.74,48.9,48.9,0,0,1,3.39-18.79,41,41,0,0,1,9.24-13.85,38.23,38.23,0,0,1,13.51-8.48,47.84,47.84,0,0,1,32,0,37.76,37.76,0,0,1,13.54,8.49,40,40,0,0,1,9.07,13.88A50.56,50.56,0,0,1,278.59,431.19Z"/></g><path class="cls-3" d="M957.05,523.71a99.07,99.07,0,0,1-10.57,1.57,278.75,278.75,0,0,1-45.75,55.37c-28.55,26.65-62.53,47.34-101,61.51-38.65,14.23-80.65,21.44-124.83,21.44s-86.11-7.26-124.79-21.6q-7.65-2.84-15.06-6c46.83-26.39,85.86-64,113.31-111.58-1.75.24-3.56.47-5.45.68a128.12,128.12,0,0,1-13.37.71c-.63,0-1.23,0-1.85,0a278.37,278.37,0,0,1-45.46,54.9A290.53,290.53,0,0,1,515.91,627a292.48,292.48,0,0,1-66.82-46.79,280.51,280.51,0,0,1-51.3-64.61,80.1,80.1,0,0,1-9.56,4.43c-2,.78-4.15,1.46-6.29,2.08,27.6,48.56,67.19,87,114.81,113.85q-7.63,3.27-15.52,6.19c-38.64,14.23-80.64,21.44-124.82,21.44S270.3,656.34,231.62,642c-38.45-14.24-72.44-35-101-61.78A282.6,282.6,0,0,1,62.71,482.1C46.07,442.28,37.64,397.84,37.64,350s8.43-92.28,25.07-132.1a282.6,282.6,0,0,1,67.89-98.12C159.18,93,193.17,72.24,231.62,58c38.68-14.34,80.67-21.6,124.79-21.6s86.18,7.21,124.82,21.44q7.89,2.91,15.52,6.19c-50.51,28.49-92,70-119.71,122.82l-3.7,7.33c4.34.71,12.21,4.13,16.21,5.55a281,281,0,0,1,59.54-79.95A292.48,292.48,0,0,1,515.91,73a290.53,290.53,0,0,1,66.32,46.36,279.29,279.29,0,0,1,57.87,76.57q5.42-.42,11.12-.42c2.33,0,4.9.13,7.85.38C631.55,138.64,588.35,94.05,535.05,64q7.41-3.18,15.06-6c38.68-14.34,80.67-21.6,124.79-21.6s86.18,7.21,124.83,21.44c38.47,14.17,72.45,34.86,101,61.51A279.14,279.14,0,0,1,956,191l11.88-13.6c-57.5-101.26-167.14-158-293-158-57.52,0-111.66,12-159,34.64C468.46,31.34,414.14,19.4,356.41,19.4,171,19.4,20.64,143.79,20.64,350S171,680.6,356.41,680.6c57.73,0,112-11.94,159.5-34.64,47.33,22.66,101.47,34.64,159,34.64,126.68,0,237-57.5,294.13-160.05A102.53,102.53,0,0,1,957.05,523.71Z"/></g></svg>